<svg xmlns="http://www.w3.org/2000/svg" viewBox="0 0 32 32" width="18" height="18" style="border-color: rgba(0,0,0,0);border-width: bpx;border-style: undefined" filter="none">
    
    <g>
    <path d="M16 1.984c-7.744 0-13.984 6.272-13.984 14.016s6.24 14.016 13.984 14.016 14.016-6.272 14.016-14.016-6.272-14.016-14.016-14.016zM25.664 16.928c-0.032 0.288-0.064 0.608-0.16 0.96h-7.616v7.616c-0.352 0.096-0.672 0.128-0.992 0.16s-0.64 0.032-0.96 0.032c-0.288 0-0.576 0-0.864-0.032s-0.608-0.064-0.96-0.16v-7.616h-7.616c-0.064-0.352-0.128-0.672-0.16-0.992s-0.032-0.64-0.032-0.96c0-0.288 0-0.576 0.032-0.864s0.096-0.608 0.16-0.96h7.616v-7.616c0.352-0.064 0.672-0.128 0.992-0.16s0.64-0.032 0.96-0.032c0.288 0 0.576 0 0.864 0.032s0.608 0.096 0.96 0.16v7.616h7.616c0.096 0.352 0.128 0.672 0.16 0.992s0.032 0.64 0.032 0.96c0 0.288 0 0.576-0.032 0.864z" fill="rgba(10.965,135.91500000000002,248.88,1)"></path>
    </g>
  </svg>