<svg xmlns="http://www.w3.org/2000/svg" viewBox="0 0 32 32" width="18" height="18"  filter="none">
  <g>
  <path d="M29.92 14.72c-0.032-0.48-0.096-0.96-0.192-1.472h-10.976v-10.976c-0.512-0.096-0.992-0.16-1.408-0.224-0.416-0.032-0.832-0.064-1.248-0.064-0.48 0-0.928 0.032-1.376 0.064s-0.96 0.128-1.472 0.224v10.976h-10.976c-0.096 0.512-0.192 0.992-0.224 1.408s-0.064 0.8-0.064 1.216c0 0.512 0.032 0.96 0.064 1.408s0.128 0.928 0.224 1.44h10.976v11.008c0.512 0.096 0.992 0.192 1.408 0.224s0.832 0.032 1.248 0.032c0.48 0 0.928 0 1.376-0.032s0.928-0.128 1.472-0.224v-11.008h10.976c0.096-0.512 0.16-0.96 0.192-1.376 0.064-0.416 0.064-0.832 0.064-1.248 0.032-0.48 0-0.928-0.064-1.376z"  ></path>
  </g>
</svg>