<?xml version="1.0" standalone="no"?><!DOCTYPE svg PUBLIC "-//W3C//DTD SVG 1.1//EN" "http://www.w3.org/Graphics/SVG/1.1/DTD/svg11.dtd"><svg t="1588010919424" class="icon" viewBox="0 0 1024 1024" version="1.1" xmlns="http://www.w3.org/2000/svg" p-id="4226" xmlns:xlink="http://www.w3.org/1999/xlink" width="16" height="16"><defs><style type="text/css"></style></defs><path d="M512 512m-480 0a480 480 0 1 0 960 0 480 480 0 1 0-960 0Z" fill="#FFE8CD" p-id="4227"></path><path d="M678.4 780.8H345.6c-25.6 0-44.8-19.2-44.8-44.8V249.6c0-25.6 19.2-44.8 44.8-44.8h332.8c25.6 0 44.8 19.2 44.8 44.8v486.4c0 25.6-19.2 44.8-44.8 44.8z" fill="#FF9D1C" p-id="4228"></path><path d="M633.6 608H390.4c-19.2 0-32-12.8-32-32V294.4c0-19.2 12.8-32 32-32H640c19.2 0 32 12.8 32 32V576c-6.4 19.2-19.2 32-38.4 32z" fill="#FFCA83" p-id="4229"></path><path d="M512 697.6m-38.4 0a38.4 38.4 0 1 0 76.8 0 38.4 38.4 0 1 0-76.8 0Z" fill="#FFFFFF" p-id="4230"></path></svg>