<?xml version="1.0" standalone="no"?><!DOCTYPE svg PUBLIC "-//W3C//DTD SVG 1.1//EN" "http://www.w3.org/Graphics/SVG/1.1/DTD/svg11.dtd"><svg t="1587385300286" class="icon" viewBox="0 0 1024 1024" version="1.1" xmlns="http://www.w3.org/2000/svg" p-id="18623" xmlns:xlink="http://www.w3.org/1999/xlink" width="16" height="16"><defs><style type="text/css"></style></defs><path d="M250.7 363.18c0 22.2-17.8 40.3-39.86 40.88v24.8c0 5.54-4.48 10-10 10s-10-4.46-10-10v-24.74H160.98c-5.52 0-10-4.48-10-10s4.48-10 10-10h48.78c11.54 0 20.94-9.4 20.94-20.94 0-11.54-9.4-20.94-20.94-20.94h-17.84c-22.58 0-40.94-18.36-40.94-40.92 0-22.2 17.78-40.3 39.86-40.88v-24.8c0-5.52 4.48-10 10-10s10 4.48 10 10v24.74h29.86c5.52 0 10 4.48 10 10s-4.48 10-10 10H191.92c-11.54 0-20.94 9.4-20.94 20.94 0 11.54 9.4 20.92 20.94 20.92h17.84c22.58 0 40.94 18.38 40.94 40.94z" fill="#23130D" p-id="18624"></path><path d="M319.96 461.92h-44.52c44.82-25.88 75.08-74.3 75.08-129.68 0-82.52-67.16-149.66-149.68-149.66-82.54 0-149.68 67.14-149.68 149.66 0 55.38 30.26 103.8 75.08 129.68H81.72c-16.84 0-30.56 13.72-30.56 30.56 0 7.92 3.06 15.12 8.02 20.54-4.96 5.44-8.02 12.64-8.02 20.56 0 7.92 3.06 15.12 8.02 20.54-4.96 5.44-8.02 12.64-8.02 20.56 0 7.92 3.06 15.12 8.02 20.54-4.96 5.44-8.02 12.64-8.02 20.54 0 7.92 3.06 15.12 8.02 20.56-4.96 5.44-8.02 12.64-8.02 20.54 0 7.92 3.06 15.12 8.02 20.56-4.96 5.44-8.02 12.64-8.02 20.54 0 7.92 3.06 15.12 8.02 20.56-4.96 5.44-8.02 12.64-8.02 20.54 0 7.92 3.06 15.12 8.02 20.56-4.96 5.42-8.02 12.64-8.02 20.54 0 7.92 3.06 15.12 8.02 20.56-4.96 5.44-8.02 12.64-8.02 20.54 0 7.92 3.06 15.12 8.02 20.56-4.96 5.42-8.02 12.62-8.02 20.54s3.06 15.12 8.02 20.56c-4.96 5.42-8.02 12.62-8.02 20.54 0 16.84 13.7 30.56 30.56 30.56h238.24c16.86 0 30.56-13.72 30.56-30.56 0-7.92-3.06-15.12-8.02-20.54 4.96-5.44 8.02-12.64 8.02-20.56s-3.06-15.12-8.02-20.54c4.96-5.44 8.02-12.64 8.02-20.56 0-7.9-3.06-15.1-8.02-20.54 4.96-5.44 8.02-12.64 8.02-20.56 0-7.9-3.06-15.12-8.02-20.54 4.96-5.44 8.02-12.64 8.02-20.56 0-7.9-3.06-15.1-8.02-20.54 4.96-5.44 8.02-12.64 8.02-20.56 0-7.9-3.06-15.12-8.02-20.54 4.96-5.44 8.02-12.64 8.02-20.56 0-7.9-3.06-15.1-8.02-20.54 4.96-5.44 8.02-12.64 8.02-20.56 0-7.9-3.06-15.1-8.02-20.54 4.96-5.42 8.02-12.62 8.02-20.54s-3.06-15.12-8.02-20.56c4.96-5.42 8.02-12.62 8.02-20.54s-3.06-15.12-8.02-20.56c4.96-5.42 8.02-12.62 8.02-20.54 0-16.84-13.7-30.56-30.56-30.56z m-248.8-129.68c0-71.5 58.18-129.66 129.68-129.66s129.68 58.16 129.68 129.66c0 71.52-58.18 129.68-129.68 129.68s-129.68-58.16-129.68-129.68z m248.8 581.78H81.72c-5.82 0-10.56-4.74-10.56-10.56s4.74-10.54 10.56-10.54h238.24c5.82 0 10.56 4.72 10.56 10.54 0 5.82-4.74 10.56-10.56 10.56z m0-41.1H81.72c-5.82 0-10.56-4.74-10.56-10.56s4.74-10.54 10.56-10.54h238.24c5.82 0 10.56 4.72 10.56 10.54 0 5.82-4.74 10.56-10.56 10.56z m0-41.1H81.72c-2.92 0-5.56-1.18-7.46-3.1a10.524 10.524 0 0 1-3.1-7.46c0-5.8 4.74-10.54 10.56-10.54h238.24c5.82 0 10.56 4.74 10.56 10.54 0 5.82-4.74 10.56-10.56 10.56z m0-41.1H81.72c-5.82 0-10.56-4.74-10.56-10.56 0-5.8 4.74-10.54 10.56-10.54h238.24c5.82 0 10.56 4.74 10.56 10.54 0 5.82-4.74 10.56-10.56 10.56z m0-41.1H81.72c-5.82 0-10.56-4.74-10.56-10.56 0-5.8 4.74-10.54 10.56-10.54h238.24c5.82 0 10.56 4.74 10.56 10.54 0 5.82-4.74 10.56-10.56 10.56z m0-41.1H81.72c-5.82 0-10.56-4.74-10.56-10.56 0-5.8 4.74-10.54 10.56-10.54h238.24c5.82 0 10.56 4.74 10.56 10.54 0 5.82-4.74 10.56-10.56 10.56z m0-41.1H81.72c-5.82 0-10.56-4.74-10.56-10.56 0-5.8 4.74-10.54 10.56-10.54h238.24c5.82 0 10.56 4.74 10.56 10.54 0 5.82-4.74 10.56-10.56 10.56z m0-41.1H81.72c-5.82 0-10.56-4.74-10.56-10.56 0-5.8 4.74-10.54 10.56-10.54h238.24c5.82 0 10.56 4.74 10.56 10.54 0 5.82-4.74 10.56-10.56 10.56z m0-41.1H81.72a10.52 10.52 0 0 1-7.46-3.08 10.488 10.488 0 0 1-3.1-7.46c0-5.82 4.74-10.54 10.56-10.54h238.24c5.82 0 10.56 4.72 10.56 10.54 0 5.82-4.74 10.54-10.56 10.54z m0-41.1H81.72c-5.82 0-10.56-4.72-10.56-10.54 0-5.82 4.74-10.56 10.56-10.56h238.24c5.82 0 10.56 4.74 10.56 10.56s-4.74 10.54-10.56 10.54z m0-41.1H81.72c-5.82 0-10.56-4.72-10.56-10.54 0-5.82 4.74-10.56 10.56-10.56h238.24c5.82 0 10.56 4.74 10.56 10.56s-4.74 10.54-10.56 10.54z" fill="#23130D" p-id="18625"></path><path d="M330.52 492.48c0 5.82-4.74 10.54-10.56 10.54H81.72c-5.82 0-10.56-4.72-10.56-10.54 0-5.82 4.74-10.56 10.56-10.56h238.24c5.82 0 10.56 4.74 10.56 10.56zM330.52 533.58c0 5.82-4.74 10.54-10.56 10.54H81.72c-5.82 0-10.56-4.72-10.56-10.54 0-5.82 4.74-10.56 10.56-10.56h238.24c5.82 0 10.56 4.74 10.56 10.56zM330.52 574.68c0 5.82-4.74 10.54-10.56 10.54H81.72a10.52 10.52 0 0 1-7.46-3.08 10.488 10.488 0 0 1-3.1-7.46c0-5.82 4.74-10.54 10.56-10.54h238.24c5.82 0 10.56 4.72 10.56 10.54zM330.52 615.76c0 5.82-4.74 10.56-10.56 10.56H81.72c-5.82 0-10.56-4.74-10.56-10.56 0-5.8 4.74-10.54 10.56-10.54h238.24c5.82 0 10.56 4.74 10.56 10.54zM330.52 656.86c0 5.82-4.74 10.56-10.56 10.56H81.72c-5.82 0-10.56-4.74-10.56-10.56 0-5.8 4.74-10.54 10.56-10.54h238.24c5.82 0 10.56 4.74 10.56 10.54zM330.52 697.96c0 5.82-4.74 10.56-10.56 10.56H81.72c-5.82 0-10.56-4.74-10.56-10.56 0-5.8 4.74-10.54 10.56-10.54h238.24c5.82 0 10.56 4.74 10.56 10.54zM330.52 739.06c0 5.82-4.74 10.56-10.56 10.56H81.72c-5.82 0-10.56-4.74-10.56-10.56 0-5.8 4.74-10.54 10.56-10.54h238.24c5.82 0 10.56 4.74 10.56 10.54zM330.52 780.16c0 5.82-4.74 10.56-10.56 10.56H81.72c-5.82 0-10.56-4.74-10.56-10.56 0-5.8 4.74-10.54 10.56-10.54h238.24c5.82 0 10.56 4.74 10.56 10.54zM330.52 821.26c0 5.82-4.74 10.56-10.56 10.56H81.72c-2.92 0-5.56-1.18-7.46-3.1a10.524 10.524 0 0 1-3.1-7.46c0-5.8 4.74-10.54 10.56-10.54h238.24c5.82 0 10.56 4.74 10.56 10.54zM330.52 862.36c0 5.82-4.74 10.56-10.56 10.56H81.72c-5.82 0-10.56-4.74-10.56-10.56s4.74-10.54 10.56-10.54h238.24c5.82 0 10.56 4.72 10.56 10.54zM330.52 903.46c0 5.82-4.74 10.56-10.56 10.56H81.72c-5.82 0-10.56-4.74-10.56-10.56s4.74-10.54 10.56-10.54h238.24c5.82 0 10.56 4.72 10.56 10.54zM200.84 202.58c-71.5 0-129.68 58.16-129.68 129.66 0 71.52 58.18 129.68 129.68 129.68s129.68-58.16 129.68-129.68c0-71.5-58.18-129.66-129.68-129.66z m-8.92 119.66h17.84c22.58 0 40.94 18.38 40.94 40.94 0 22.2-17.8 40.3-39.86 40.88v24.8c0 5.54-4.48 10-10 10s-10-4.46-10-10v-24.74H160.98c-5.52 0-10-4.48-10-10s4.48-10 10-10h48.78c11.54 0 20.94-9.4 20.94-20.94 0-11.54-9.4-20.94-20.94-20.94h-17.84c-22.58 0-40.94-18.36-40.94-40.92 0-22.2 17.78-40.3 39.86-40.88v-24.8c0-5.52 4.48-10 10-10s10 4.48 10 10v24.74h29.86c5.52 0 10 4.48 10 10s-4.48 10-10 10H191.92c-11.54 0-20.94 9.4-20.94 20.94 0 11.54 9.4 20.92 20.94 20.92z" fill="#F9C139" p-id="18626"></path><path d="M212.84 449.92c-71.5 0-129.68-58.16-129.68-129.68 0-32.72 12.16-62.62 32.22-85.44-27.1 23.78-44.22 58.64-44.22 97.44 0 71.52 58.18 129.68 129.68 129.68 38.8 0 73.68-17.12 97.46-44.22-22.84 20.06-52.74 32.22-85.46 32.22z" fill="#23130D" opacity=".2" p-id="18627"></path><path d="M902.14 324.9c-42.26-48.82-99.46-82.12-162.24-94.72 12.14-25.02 33.92-57.66 66.6-63.1 18.34-3.06 30.52-12.76 33.46-26.62 2.98-14.14-4.62-29.12-19.8-39.1-25.9-17.02-75.3-19.72-137.6 22.18-62.28-41.9-111.7-39.2-137.58-22.18-15.2 9.98-22.78 24.96-19.8 39.1 2.92 13.86 15.12 23.56 33.46 26.62 32.68 5.44 54.46 38.08 66.6 63.1-62.78 12.6-120 45.9-162.24 94.72-45.6 52.68-70.7 120.1-70.7 189.88v372.64c0 25.88 21.08 46.96 46.98 46.96h486.56c25.92 0 47-21.08 47-46.96V514.78c0-69.78-25.12-137.2-70.7-189.88zM561.92 147.34c-9.78-1.64-16.04-5.64-17.18-11-1.2-5.74 3.3-13.08 11.22-18.28 21.18-13.9 64.02-14.44 120.82 25.78 0.08 0.06 0.18 0.08 0.26 0.14 0.3 0.2 0.64 0.38 0.96 0.56 0.26 0.12 0.52 0.26 0.8 0.38 0.3 0.12 0.62 0.22 0.96 0.3 0.3 0.1 0.6 0.2 0.9 0.26 0.32 0.06 0.64 0.08 0.96 0.12 0.32 0.02 0.62 0.06 0.94 0.06 0.34 0 0.66-0.04 1-0.08 0.3-0.02 0.6-0.04 0.9-0.1 0.32-0.06 0.64-0.16 0.98-0.26 0.3-0.1 0.6-0.18 0.88-0.3 0.3-0.12 0.56-0.26 0.84-0.42 0.32-0.16 0.64-0.32 0.92-0.52 0.1-0.04 0.18-0.08 0.26-0.14 56.8-40.22 99.66-39.68 120.82-25.78 7.92 5.2 12.44 12.54 11.22 18.28-1.12 5.36-7.38 9.38-17.18 11-42.14 7.04-68.52 45.66-83.84 79.52-12.22-1.54-24.54-2.36-36.8-2.36-12.24 0-24.56 0.84-36.78 2.36-15.32-33.86-41.7-72.5-83.86-79.52z m390.92 740.08c0 14.86-12.1 26.96-27 26.96H439.28c-14.88 0-26.98-12.1-26.98-26.96v-37.78h540.54v37.78z m0-57.78H412.3V514.78c0-132.22 98.38-247.06 228.84-267.12 13.68-2.1 27.62-3.16 41.42-3.16 13.82 0 27.76 1.06 41.42 3.16 130.48 20.06 228.86 134.9 228.86 267.12v314.86z" fill="#23130D" p-id="18628"></path><path d="M952.84 849.64v37.78c0 14.86-12.1 26.96-27 26.96H439.28c-14.88 0-26.98-12.1-26.98-26.96v-37.78h540.54z" fill="#E1E1E5" p-id="18629"></path><path d="M483.7 914.38h-44.42c-14.88 0-26.98-12.1-26.98-26.96v-37.78h44.42v37.78c0 14.86 12.08 26.96 26.98 26.96z" fill="#23130D" opacity=".2" p-id="18630"></path><path d="M820.38 136.34c-1.12 5.36-7.38 9.38-17.18 11-42.14 7.04-68.52 45.66-83.84 79.52-12.22-1.54-24.54-2.36-36.8-2.36-12.24 0-24.56 0.84-36.78 2.36-15.32-33.86-41.7-72.5-83.86-79.52-9.78-1.64-16.04-5.64-17.18-11-1.2-5.74 3.3-13.08 11.22-18.28 21.18-13.9 64.02-14.44 120.82 25.78 0.08 0.06 0.18 0.08 0.26 0.14 0.3 0.2 0.64 0.38 0.96 0.56 0.26 0.12 0.52 0.26 0.8 0.38 0.3 0.12 0.62 0.22 0.96 0.3 0.3 0.1 0.6 0.2 0.9 0.26 0.32 0.06 0.64 0.08 0.96 0.12 0.32 0.02 0.62 0.06 0.94 0.06 0.34 0 0.66-0.04 1-0.08 0.3-0.02 0.6-0.04 0.9-0.1 0.32-0.06 0.64-0.16 0.98-0.26 0.3-0.1 0.6-0.18 0.88-0.3 0.3-0.12 0.56-0.26 0.84-0.42 0.32-0.16 0.64-0.32 0.92-0.52 0.1-0.04 0.18-0.08 0.26-0.14 56.8-40.22 99.66-39.68 120.82-25.78 7.92 5.2 12.44 12.54 11.22 18.28z" fill="#E1E1E5" p-id="18631"></path><path d="M693.8 224.74c-3.74-0.16-7.5-0.24-11.24-0.24-12.24 0-24.56 0.84-36.78 2.36-15.32-33.86-41.7-72.5-83.86-79.52-9.78-1.64-16.04-5.64-17.18-11-1.2-5.74 3.3-13.08 11.22-18.28 12.56-8.24 32.76-11.8 58.98-4.9-3.72 1.32-7.06 2.98-9.98 4.9-7.92 5.2-12.42 12.54-11.22 18.28 1.14 5.36 7.4 9.36 17.18 11 41.28 6.88 67.44 44.06 82.88 77.4z" fill="#23130D" opacity=".2" p-id="18632"></path><path d="M723.98 247.66c-13.66-2.1-27.6-3.16-41.42-3.16-13.8 0-27.74 1.06-41.42 3.16-130.46 20.06-228.84 134.9-228.84 267.12v314.86h540.54V514.78c0-132.22-98.38-247.06-228.86-267.12z m86.42 235.64l25.44-14.7c4.78-2.76 10.9-1.12 13.66 3.66s1.12 10.9-3.66 13.66l-25.44 14.7c-1.58 0.9-3.3 1.34-5 1.34-3.46 0-6.82-1.8-8.66-5a10 10 0 0 1 3.66-13.66z m-59.8-52.48l14.7-25.44a9.986 9.986 0 0 1 13.66-3.66 10 10 0 0 1 3.66 13.66l-14.7 25.44c-1.86 3.2-5.22 5-8.68 5a10.004 10.004 0 0 1-8.64-15z m-78.02-44.94c0-5.52 4.46-10 10-10 5.52 0 10 4.48 10 10v29.38c0 5.54-4.48 10-10 10-5.54 0-10-4.46-10-10v-29.38z m9.98 59.28c68.1 0 123.5 55.38 123.5 123.48s-55.4 123.5-123.5 123.5c-68.08 0-123.48-55.4-123.48-123.5s55.4-123.48 123.48-123.48z m-96.36-43.44a10.008 10.008 0 0 1 13.66 3.66l14.68 25.44a10.004 10.004 0 0 1-8.64 15c-3.46 0-6.82-1.8-8.68-5l-14.68-25.44a10.004 10.004 0 0 1 3.66-13.66z m-70.56 70.54a10.004 10.004 0 0 1 13.66-3.66l25.44 14.7a10 10 0 0 1 3.66 13.66c-1.84 3.2-5.2 5-8.66 5-1.7 0-3.42-0.44-5-1.34l-25.44-14.7a10.004 10.004 0 0 1-3.66-13.66z m-25.82 96.38c0-5.52 4.48-10 10-10h29.38c5.52 0 10 4.48 10 10s-4.48 10-10 10h-29.38c-5.52 0-10-4.48-10-10z m64.92 85.34l-25.44 14.7c-1.58 0.9-3.3 1.34-4.98 1.34-3.46 0-6.82-1.8-8.68-5a10.004 10.004 0 0 1 3.66-13.66l25.44-14.7a10.004 10.004 0 0 1 13.66 3.66c2.76 4.78 1.12 10.9-3.66 13.66z m59.8 52.5l-14.7 25.44c-1.84 3.2-5.2 5-8.66 5a10.004 10.004 0 0 1-8.66-15l14.7-25.46a10.026 10.026 0 0 1 13.66-3.66 10.028 10.028 0 0 1 3.66 13.68z m78.02 44.92c0 5.52-4.48 10-10 10s-10-4.48-10-10l0.02-29.38c0-5.52 4.46-10 10-10 5.52 0 10 4.48 10 10l-0.02 29.38z m86.38-15.82c-1.58 0.9-3.28 1.34-4.98 1.34-3.46 0-6.82-1.8-8.68-5l-14.68-25.46a9.992 9.992 0 1 1 17.32-9.98l14.68 25.44c2.76 4.78 1.12 10.9-3.66 13.66z m70.56-70.56a9.99 9.99 0 0 1-8.68 5c-1.68 0-3.4-0.42-4.98-1.34l-25.44-14.7a10.004 10.004 0 0 1-3.66-13.66c2.76-4.78 8.88-6.4 13.66-3.66l25.44 14.7a10.004 10.004 0 0 1 3.66 13.66z m15.82-86.38h-29.38c-5.52 0-10-4.48-10-10s4.48-10 10-10h29.38c5.52 0 10 4.48 10 10s-4.48 10-10 10z" fill="#72AF5F" p-id="18633"></path><path d="M682.56 244.5c-13.8 0-27.74 1.06-41.42 3.16-130.46 20.06-228.84 134.9-228.84 267.12v314.86h44.42V514.78c0-132.22 98.38-247.06 228.82-267.12 6.36-0.98 12.78-1.72 19.22-2.24-7.38-0.62-14.82-0.92-22.2-0.92z" fill="#23130D" opacity=".2" p-id="18634"></path><path d="M726.98 595.36c0 19.48-15.24 35.42-34.42 36.6v20.14c0 5.52-4.48 10-10 10s-10-4.48-10-10v-20.02h-24.42c-5.54 0-10-4.48-10-10s4.46-10 10-10H690.26c9.22 0 16.72-7.5 16.72-16.72s-7.5-16.72-16.72-16.72h-15.4c-20.26 0-36.72-16.48-36.72-36.72 0-19.48 15.24-35.42 34.42-36.6v-20.14c0-5.52 4.48-10 10-10s10 4.48 10 10v20.02h24.42c5.52 0 10 4.48 10 10s-4.48 10-10 10h-42.12c-9.22 0-16.72 7.5-16.72 16.72 0 9.22 7.5 16.72 16.72 16.72h15.4c20.26 0 36.72 16.48 36.72 36.72z" fill="#23130D" p-id="18635"></path><path d="M682.56 445.16c-68.08 0-123.48 55.38-123.48 123.48s55.4 123.5 123.48 123.5c68.1 0 123.5-55.4 123.5-123.5s-55.4-123.48-123.5-123.48z m0 226.98c-57.06 0-103.48-46.44-103.48-103.5s46.42-103.48 103.48-103.48c57.08 0 103.5 46.42 103.5 103.48s-46.42 103.5-103.5 103.5z" fill="#23130D" p-id="18636"></path><path d="M682.56 465.16c-57.06 0-103.48 46.42-103.48 103.48s46.42 103.5 103.48 103.5c57.08 0 103.5-46.44 103.5-103.5s-46.42-103.48-103.5-103.48z m-7.7 93.48h15.4c20.26 0 36.72 16.48 36.72 36.72 0 19.48-15.24 35.42-34.42 36.6v20.14c0 5.52-4.48 10-10 10s-10-4.48-10-10v-20.02h-24.42c-5.54 0-10-4.48-10-10s4.46-10 10-10H690.26c9.22 0 16.72-7.5 16.72-16.72s-7.5-16.72-16.72-16.72h-15.4c-20.26 0-36.72-16.48-36.72-36.72 0-19.48 15.24-35.42 34.42-36.6v-20.14c0-5.52 4.48-10 10-10s10 4.48 10 10v20.02h24.42c5.52 0 10 4.48 10 10s-4.48 10-10 10h-42.12c-9.22 0-16.72 7.5-16.72 16.72 0 9.22 7.5 16.72 16.72 16.72z" fill="#E1E1E5" p-id="18637"></path><path d="M692.58 385.88v29.38c0 5.54-4.48 10-10 10-5.54 0-10-4.46-10-10v-29.38c0-5.52 4.46-10 10-10 5.52 0 10 4.48 10 10zM610.88 444.48c-1.56 0.9-3.28 1.34-4.98 1.34-3.46 0-6.82-1.8-8.68-5l-14.68-25.44a10.004 10.004 0 0 1 3.66-13.66 10.008 10.008 0 0 1 13.66 3.66l14.68 25.44c2.76 4.78 1.12 10.9-3.66 13.66zM558.4 496.96c-1.84 3.2-5.2 5-8.66 5-1.7 0-3.42-0.44-5-1.34l-25.44-14.7c-4.78-2.76-6.42-8.88-3.66-13.66s8.88-6.42 13.66-3.66l25.44 14.7a10 10 0 0 1 3.66 13.66zM539.2 568.64c0 5.52-4.48 10-10 10h-29.38c-5.52 0-10-4.48-10-10s4.48-10 10-10h29.38c5.52 0 10 4.48 10 10zM554.74 653.98l-25.44 14.7c-1.58 0.9-3.3 1.34-4.98 1.34-3.46 0-6.82-1.8-8.68-5a10.004 10.004 0 0 1 3.66-13.66l25.44-14.7a10.004 10.004 0 0 1 13.66 3.66c2.76 4.78 1.12 10.9-3.66 13.66zM614.54 706.48l-14.7 25.44c-1.84 3.2-5.2 5-8.66 5a10.004 10.004 0 0 1-8.66-15l14.7-25.46a10.026 10.026 0 0 1 13.66-3.66 10.028 10.028 0 0 1 3.66 13.68zM692.58 722.02l-0.02 29.38c0 5.52-4.48 10-10 10s-10-4.48-10-10l0.02-29.38c0-5.52 4.46-10 10-10 5.52 0 10 4.48 10 10zM778.94 735.58c-1.58 0.9-3.28 1.34-4.98 1.34-3.46 0-6.82-1.8-8.68-5l-14.68-25.46a9.992 9.992 0 1 1 17.32-9.98l14.68 25.44c2.76 4.78 1.12 10.9-3.66 13.66zM849.5 665.02a9.99 9.99 0 0 1-8.68 5c-1.68 0-3.4-0.42-4.98-1.34l-25.44-14.7a10.004 10.004 0 0 1-3.66-13.66c2.76-4.78 8.88-6.4 13.66-3.66l25.44 14.7a10.004 10.004 0 0 1 3.66 13.66zM875.32 568.64c0 5.52-4.48 10-10 10h-29.38c-5.52 0-10-4.48-10-10s4.48-10 10-10h29.38c5.52 0 10 4.48 10 10zM845.84 485.92l-25.44 14.7c-1.58 0.9-3.3 1.34-5 1.34-3.46 0-6.82-1.8-8.66-5a10 10 0 0 1 3.66-13.66l25.44-14.7c4.78-2.76 10.9-1.12 13.66 3.66s1.12 10.9-3.66 13.66zM782.62 415.38l-14.7 25.44c-1.86 3.2-5.22 5-8.68 5a10.004 10.004 0 0 1-8.64-15l14.7-25.44a9.986 9.986 0 0 1 13.66-3.66 10 10 0 0 1 3.66 13.66z" fill="#23130D" p-id="18638"></path><path d="M85.76 481.92h15.5v21.1h-15.5zM116.42 481.92h15.5v21.1h-15.5zM147.08 481.92h15.52v21.1h-15.52zM177.76 481.92h15.5v21.1h-15.5zM208.42 481.92h15.5v21.1h-15.5zM239.08 481.92h15.52v21.1h-15.52zM269.76 481.92h15.5v21.1h-15.5zM300.42 481.92h15.5v21.1h-15.5z" fill="#FFFFFF" opacity=".4" p-id="18639"></path><path d="M85.76 523.02h15.5v21.1h-15.5zM116.42 523.02h15.5v21.1h-15.5zM147.08 523.02h15.52v21.1h-15.52zM177.76 523.02h15.5v21.1h-15.5zM208.42 523.02h15.5v21.1h-15.5zM239.08 523.02h15.52v21.1h-15.52zM269.76 523.02h15.5v21.1h-15.5zM300.42 523.02h15.5v21.1h-15.5z" fill="#FFFFFF" opacity=".4" p-id="18640"></path><path d="M85.76 564.12h15.5v21.1h-15.5zM116.42 564.12h15.5v21.1h-15.5zM147.08 564.12h15.52v21.1h-15.52zM177.76 564.12h15.5v21.1h-15.5zM208.42 564.12h15.5v21.1h-15.5zM239.08 564.12h15.52v21.1h-15.52zM269.76 564.12h15.5v21.1h-15.5zM300.42 564.12h15.5v21.1h-15.5z" fill="#FFFFFF" opacity=".4" p-id="18641"></path><path d="M85.76 605.22h15.5v21.1h-15.5zM116.42 605.22h15.5v21.1h-15.5zM147.08 605.22h15.52v21.1h-15.52zM177.76 605.22h15.5v21.1h-15.5zM208.42 605.22h15.5v21.1h-15.5zM239.08 605.22h15.52v21.1h-15.52zM269.76 605.22h15.5v21.1h-15.5zM300.42 605.22h15.5v21.1h-15.5z" fill="#FFFFFF" opacity=".4" p-id="18642"></path><path d="M85.76 646.32h15.5v21.1h-15.5zM116.42 646.32h15.5v21.1h-15.5zM147.08 646.32h15.52v21.1h-15.52zM177.76 646.32h15.5v21.1h-15.5zM208.42 646.32h15.5v21.1h-15.5zM239.08 646.32h15.52v21.1h-15.52zM269.76 646.32h15.5v21.1h-15.5zM300.42 646.32h15.5v21.1h-15.5z" fill="#FFFFFF" opacity=".4" p-id="18643"></path><path d="M85.76 687.42h15.5v21.1h-15.5zM116.42 687.42h15.5v21.1h-15.5zM147.08 687.42h15.52v21.1h-15.52zM177.76 687.42h15.5v21.1h-15.5zM208.42 687.42h15.5v21.1h-15.5zM239.08 687.42h15.52v21.1h-15.52zM269.76 687.42h15.5v21.1h-15.5zM300.42 687.42h15.5v21.1h-15.5z" fill="#FFFFFF" opacity=".4" p-id="18644"></path><path d="M85.76 728.52h15.5v21.1h-15.5zM116.42 728.52h15.5v21.1h-15.5zM147.08 728.52h15.52v21.1h-15.52zM177.76 728.52h15.5v21.1h-15.5zM208.42 728.52h15.5v21.1h-15.5zM239.08 728.52h15.52v21.1h-15.52zM269.76 728.52h15.5v21.1h-15.5zM300.42 728.52h15.5v21.1h-15.5z" fill="#FFFFFF" opacity=".4" p-id="18645"></path><path d="M85.76 769.62h15.5v21.1h-15.5zM116.42 769.62h15.5v21.1h-15.5zM147.08 769.62h15.52v21.1h-15.52zM177.76 769.62h15.5v21.1h-15.5zM208.42 769.62h15.5v21.1h-15.5zM239.08 769.62h15.52v21.1h-15.52zM269.76 769.62h15.5v21.1h-15.5zM300.42 769.62h15.5v21.1h-15.5z" fill="#FFFFFF" opacity=".4" p-id="18646"></path><path d="M85.76 810.72h15.5v21.1h-15.5zM116.42 810.72h15.5v21.1h-15.5zM147.08 810.72h15.52v21.1h-15.52zM177.76 810.72h15.5v21.1h-15.5zM208.42 810.72h15.5v21.1h-15.5zM239.08 810.72h15.52v21.1h-15.52zM269.76 810.72h15.5v21.1h-15.5zM300.42 810.72h15.5v21.1h-15.5z" fill="#FFFFFF" opacity=".4" p-id="18647"></path><path d="M85.76 851.82h15.5v21.1h-15.5zM116.42 851.82h15.5v21.1h-15.5zM147.08 851.82h15.52v21.1h-15.52zM177.76 851.82h15.5v21.1h-15.5zM208.42 851.82h15.5v21.1h-15.5zM239.08 851.82h15.52v21.1h-15.52zM269.76 851.82h15.5v21.1h-15.5zM300.42 851.82h15.5v21.1h-15.5z" fill="#FFFFFF" opacity=".4" p-id="18648"></path><path d="M85.76 892.92h15.5v21.1h-15.5zM116.42 892.92h15.5v21.1h-15.5zM147.08 892.92h15.52v21.1h-15.52zM177.76 892.92h15.5v21.1h-15.5zM208.42 892.92h15.5v21.1h-15.5zM239.08 892.92h15.52v21.1h-15.52zM269.76 892.92h15.5v21.1h-15.5zM300.42 892.92h15.5v21.1h-15.5z" fill="#FFFFFF" opacity=".4" p-id="18649"></path><path d="M313.75 342.25a10 10 0 0 1-10-10c0-56.746-46.166-102.91-102.91-102.91a10 10 0 0 1 0-20c67.772 0 122.91 55.138 122.91 122.91a10 10 0 0 1-10 10z" fill="#FFFFFF" p-id="18650"></path></svg>